<?xml version="1.0" standalone="no"?>
<!DOCTYPE svg PUBLIC "-//W3C//DTD SVG 20010904//EN"
 "http://www.w3.org/TR/2001/REC-SVG-20010904/DTD/svg10.dtd">
<svg version="1.0" xmlns="http://www.w3.org/2000/svg"
 width="487.000000pt" height="487.000000pt" viewBox="0 0 487.000000 487.000000"
 preserveAspectRatio="xMidYMid meet">
<metadata>
Created by potrace 1.14, written by Peter Selinger 2001-2017
</metadata>
<g transform="translate(0.000000,487.000000) scale(0.100000,-0.100000)"
fill="#000000" stroke="none">
<path d="M2954 4572 c-6 -4 -37 -43 -70 -87 -32 -44 -62 -81 -66 -83 -5 -2 -8
-8 -8 -13 0 -15 -42 -69 -50 -64 -4 2 -7 -2 -7 -9 0 -11 -76 -121 -94 -136 -3
-3 -11 -15 -18 -28 -7 -12 -16 -20 -20 -18 -4 3 -8 -1 -8 -8 0 -17 -63 -106
-75 -106 -5 0 -7 -4 -4 -9 4 -5 3 -11 -2 -13 -4 -1 -29 -34 -56 -73 -27 -38
-54 -74 -60 -80 -6 -5 -26 -34 -45 -62 -18 -29 -37 -53 -43 -53 -5 0 -6 -5 -3
-10 3 -6 -1 -13 -9 -16 -9 -3 -16 -12 -16 -19 0 -8 -11 -22 -25 -33 -13 -11
-23 -21 -20 -23 7 -8 -82 -118 -90 -111 -5 4 -5 2 -2 -5 4 -6 0 -18 -8 -26 -8
-9 -15 -18 -15 -22 0 -4 -6 -13 -12 -20 -26 -29 -36 -42 -47 -63 -7 -13 -17
-19 -23 -16 -6 4 -8 3 -4 -4 3 -6 0 -16 -7 -24 -7 -7 -16 -21 -20 -30 -3 -10
-11 -18 -17 -18 -5 0 -10 -6 -10 -14 0 -8 -3 -16 -7 -18 -5 -1 -24 -25 -43
-53 -19 -27 -38 -54 -43 -60 -7 -9 -36 -49 -105 -143 -9 -13 -25 -33 -34 -44
-10 -12 -18 -24 -18 -28 0 -3 -8 -15 -17 -26 -10 -11 -34 -42 -53 -69 -19 -28
-38 -54 -43 -60 -4 -5 -31 -41 -58 -80 -28 -38 -55 -73 -61 -76 -5 -3 -8 -8
-6 -10 1 -3 -3 -11 -9 -19 -17 -20 -73 -97 -103 -142 -13 -20 -29 -34 -34 -31
-5 3 -7 2 -3 -3 4 -8 -49 -86 -128 -189 -8 -10 -15 -23 -15 -28 0 -4 -5 -5
-10 -2 -6 4 -9 3 -8 -2 1 -4 -2 -19 -6 -32 -17 -51 -16 -51 555 -51 l527 0 -3
-23 c-5 -38 -17 -81 -28 -94 -5 -7 -7 -13 -4 -13 3 0 -4 -33 -15 -72 -10 -40
-21 -82 -23 -93 -3 -11 -12 -45 -21 -75 -9 -30 -21 -76 -26 -103 -6 -26 -15
-47 -20 -47 -5 0 -7 -4 -4 -9 4 -5 -15 -85 -40 -178 -25 -92 -47 -177 -50
-188 -2 -11 -13 -51 -24 -90 -45 -160 -61 -221 -65 -245 -2 -14 -12 -50 -20
-80 -36 -126 -49 -174 -59 -219 -3 -11 -14 -54 -26 -95 -28 -101 -31 -133 -15
-146 31 -25 50 -6 188 189 21 29 43 59 48 65 6 6 46 61 89 121 44 61 83 115
88 120 5 6 26 35 47 65 21 30 48 67 59 81 12 15 39 53 61 84 22 32 45 63 50
69 6 6 35 46 65 89 29 42 57 77 62 77 4 0 8 4 8 10 0 13 62 100 72 100 4 0 8
7 8 15 0 8 5 15 10 15 6 0 10 5 10 12 0 6 9 21 19 32 11 12 39 49 63 83 59 85
300 415 313 429 5 6 17 22 25 34 32 48 84 115 92 118 4 2 8 9 8 15 0 7 11 24
25 39 14 15 25 30 25 33 0 8 113 160 122 163 4 2 8 8 8 13 0 6 5 15 10 22 6 7
29 37 50 67 22 30 48 64 57 76 10 11 23 27 28 36 27 41 51 76 72 101 30 37 30
75 1 86 -13 4 -123 8 -246 7 -122 -1 -222 3 -222 7 0 5 -5 5 -12 1 -17 -11
-468 -11 -468 -1 0 5 -6 5 -12 0 -15 -8 -108 -12 -103 -3 2 3 19 66 38 140 20
74 69 262 111 418 42 156 76 290 76 298 0 8 5 14 11 14 5 0 8 4 5 8 -3 5 26
124 65 266 38 142 69 265 69 273 0 8 4 11 10 8 5 -3 7 0 5 7 -3 7 10 71 30
142 19 70 35 138 35 150 0 36 -30 56 -56 38z"/>
</g>
</svg>
